<svg width="40" height="40" viewBox="0 0 40 40" fill="none" xmlns="http://www.w3.org/2000/svg"><circle cx="20" cy="20" r="15" fill="#2775CA"></circle><path d="M24.2374 22.2424C24.2374 20.0288 22.9092 19.2699 20.2529 18.9537C18.3555 18.7006 17.976 18.1947 17.976 17.3092C17.976 16.4236 18.6085 15.8546 19.8734 15.8546C21.0118 15.8546 21.6443 16.234 21.9605 17.1827C22.0238 17.3725 22.2136 17.4989 22.4033 17.4989H23.4151C23.6682 17.4989 23.8579 17.3092 23.8579 17.0563V16.993C23.6049 15.6015 22.4664 14.5264 21.0118 14.4V12.882C21.0118 12.629 20.8221 12.4393 20.5059 12.376H19.5572C19.3042 12.376 19.1145 12.5657 19.0512 12.882V14.3367C17.1538 14.5897 15.9522 15.8546 15.9522 17.4358C15.9522 19.5229 17.2171 20.345 19.8734 20.6613C21.6443 20.9775 22.2136 21.357 22.2136 22.369C22.2136 23.381 21.328 24.0766 20.1264 24.0766C18.4819 24.0766 17.9127 23.3808 17.723 22.4321C17.6598 22.1792 17.4701 22.0526 17.2804 22.0526H16.2051C15.9522 22.0526 15.7625 22.2424 15.7625 22.4954V22.5587C16.0153 24.1398 17.0273 25.2782 19.1145 25.5945V27.1124C19.1145 27.3653 19.3042 27.5551 19.6204 27.6184H20.5691C20.8221 27.6184 21.0118 27.4286 21.0751 27.1124V25.5945C22.9725 25.2782 24.2374 23.95 24.2374 22.2424Z" fill="white"></path><path d="M16.7744 28.8526C11.8412 27.0818 9.31125 21.5794 11.1455 16.7093C12.0942 14.053 14.1813 12.0292 16.7744 11.0805C17.0274 10.954 17.1538 10.7643 17.1538 10.448V9.56256C17.1538 9.30952 17.0274 9.11979 16.7744 9.05664C16.7111 9.05664 16.5846 9.05664 16.5213 9.11979C10.513 11.0172 7.22413 17.4051 9.12152 23.4135C10.2599 26.9552 12.9796 29.6749 16.5213 30.8133C16.7744 30.9397 17.0274 30.8133 17.0905 30.5603C17.1538 30.4971 17.1538 30.4338 17.1538 30.3074V29.4218C17.1538 29.2321 16.9641 28.9792 16.7744 28.8526ZM23.4785 9.11979C23.2255 8.99334 22.9724 9.11979 22.9093 9.37282C22.846 9.43612 22.846 9.49926 22.846 9.62586V10.5113C22.846 10.7643 23.0357 11.0172 23.2255 11.1438C28.1587 12.9146 30.6886 18.417 28.8543 23.287C27.9056 25.9434 25.8185 27.9672 23.2255 28.9159C22.9724 29.0423 22.846 29.2321 22.846 29.5484V30.4338C22.846 30.6868 22.9724 30.8766 23.2255 30.9397C23.2888 30.9397 23.4152 30.9397 23.4785 30.8766C29.4868 28.9792 32.7757 22.5912 30.8783 16.5829C29.7399 12.9779 26.9569 10.2582 23.4785 9.11979Z" fill="white"></path></svg>