<svg width="920" height="690" viewBox="0 0 920 690" fill="none" xmlns="http://www.w3.org/2000/svg">
<mask id="mask0_9578_31380" style="mask-type:alpha" maskUnits="userSpaceOnUse" x="115" y="0" width="690" height="690">
<rect width="690" height="690" transform="translate(115)" fill="url(#paint0_radial_9578_31380)"/>
</mask>
<g mask="url(#mask0_9578_31380)">
<g clip-path="url(#clip0_9578_31380)">
<mask id="path-3-inside-1_9578_31380" fill="white">
<path d="M92 0H138V46H92V0Z"/>
</mask>
<path d="M138 46V46.4792H138.479V46H138ZM137.521 0V46H138.479V0H137.521ZM138 45.5208H92V46.4792H138V45.5208Z" fill="#22262F" mask="url(#path-3-inside-1_9578_31380)"/>
<mask id="path-5-inside-2_9578_31380" fill="white">
<path d="M138 0H184V46H138V0Z"/>
</mask>
<path d="M184 46V46.4792H184.479V46H184ZM183.521 0V46H184.479V0H183.521ZM184 45.5208H138V46.4792H184V45.5208Z" fill="#22262F" mask="url(#path-5-inside-2_9578_31380)"/>
<mask id="path-7-inside-3_9578_31380" fill="white">
<path d="M184 0H230V46H184V0Z"/>
</mask>
<path d="M230 46V46.4792H230.479V46H230ZM229.521 0V46H230.479V0H229.521ZM230 45.5208H184V46.4792H230V45.5208Z" fill="#22262F" mask="url(#path-7-inside-3_9578_31380)"/>
<mask id="path-9-inside-4_9578_31380" fill="white">
<path d="M230 0H276V46H230V0Z"/>
</mask>
<path d="M276 46V46.4792H276.479V46H276ZM275.521 0V46H276.479V0H275.521ZM276 45.5208H230V46.4792H276V45.5208Z" fill="#22262F" mask="url(#path-9-inside-4_9578_31380)"/>
<mask id="path-11-inside-5_9578_31380" fill="white">
<path d="M276 0H322V46H276V0Z"/>
</mask>
<path d="M322 46V46.4792H322.479V46H322ZM321.521 0V46H322.479V0H321.521ZM322 45.5208H276V46.4792H322V45.5208Z" fill="#22262F" mask="url(#path-11-inside-5_9578_31380)"/>
<mask id="path-13-inside-6_9578_31380" fill="white">
<path d="M322 0H368V46H322V0Z"/>
</mask>
<path d="M368 46V46.4792H368.479V46H368ZM367.521 0V46H368.479V0H367.521ZM368 45.5208H322V46.4792H368V45.5208Z" fill="#22262F" mask="url(#path-13-inside-6_9578_31380)"/>
<mask id="path-15-inside-7_9578_31380" fill="white">
<path d="M368 0H414V46H368V0Z"/>
</mask>
<path d="M414 46V46.4792H414.479V46H414ZM413.521 0V46H414.479V0H413.521ZM414 45.5208H368V46.4792H414V45.5208Z" fill="#22262F" mask="url(#path-15-inside-7_9578_31380)"/>
<mask id="path-17-inside-8_9578_31380" fill="white">
<path d="M414 0H460V46H414V0Z"/>
</mask>
<path d="M460 46V46.4792H460.479V46H460ZM459.521 0V46H460.479V0H459.521ZM460 45.5208H414V46.4792H460V45.5208Z" fill="#22262F" mask="url(#path-17-inside-8_9578_31380)"/>
<mask id="path-19-inside-9_9578_31380" fill="white">
<path d="M460 0H506V46H460V0Z"/>
</mask>
<path d="M506 46V46.4792H506.479V46H506ZM505.521 0V46H506.479V0H505.521ZM506 45.5208H460V46.4792H506V45.5208Z" fill="#22262F" mask="url(#path-19-inside-9_9578_31380)"/>
<mask id="path-21-inside-10_9578_31380" fill="white">
<path d="M506 0H552V46H506V0Z"/>
</mask>
<path d="M552 46V46.4792H552.479V46H552ZM551.521 0V46H552.479V0H551.521ZM552 45.5208H506V46.4792H552V45.5208Z" fill="#22262F" mask="url(#path-21-inside-10_9578_31380)"/>
<mask id="path-23-inside-11_9578_31380" fill="white">
<path d="M552 0H598V46H552V0Z"/>
</mask>
<path d="M598 46V46.4792H598.479V46H598ZM597.521 0V46H598.479V0H597.521ZM598 45.5208H552V46.4792H598V45.5208Z" fill="#22262F" mask="url(#path-23-inside-11_9578_31380)"/>
<mask id="path-25-inside-12_9578_31380" fill="white">
<path d="M598 0H644V46H598V0Z"/>
</mask>
<path d="M644 46V46.4792H644.479V46H644ZM643.521 0V46H644.479V0H643.521ZM644 45.5208H598V46.4792H644V45.5208Z" fill="#22262F" mask="url(#path-25-inside-12_9578_31380)"/>
<mask id="path-27-inside-13_9578_31380" fill="white">
<path d="M644 0H690V46H644V0Z"/>
</mask>
<path d="M690 46V46.4792H690.479V46H690ZM689.521 0V46H690.479V0H689.521ZM690 45.5208H644V46.4792H690V45.5208Z" fill="#22262F" mask="url(#path-27-inside-13_9578_31380)"/>
<mask id="path-29-inside-14_9578_31380" fill="white">
<path d="M690 0H736V46H690V0Z"/>
</mask>
<path d="M736 46V46.4792H736.479V46H736ZM735.521 0V46H736.479V0H735.521ZM736 45.5208H690V46.4792H736V45.5208Z" fill="#22262F" mask="url(#path-29-inside-14_9578_31380)"/>
<mask id="path-31-inside-15_9578_31380" fill="white">
<path d="M736 0H782V46H736V0Z"/>
</mask>
<path d="M782 46V46.4792H782.479V46H782ZM781.521 0V46H782.479V0H781.521ZM782 45.5208H736V46.4792H782V45.5208Z" fill="#22262F" mask="url(#path-31-inside-15_9578_31380)"/>
<mask id="path-33-inside-16_9578_31380" fill="white">
<path d="M782 0H828V46H782V0Z"/>
</mask>
<path d="M828 46V46.4792H828.479V46H828ZM827.521 0V46H828.479V0H827.521ZM828 45.5208H782V46.4792H828V45.5208Z" fill="#22262F" mask="url(#path-33-inside-16_9578_31380)"/>
<mask id="path-35-inside-17_9578_31380" fill="white">
<path d="M92 46H138V92H92V46Z"/>
</mask>
<path d="M138 92V92.4792H138.479V92H138ZM137.521 46V92H138.479V46H137.521ZM138 91.5208H92V92.4792H138V91.5208Z" fill="#22262F" mask="url(#path-35-inside-17_9578_31380)"/>
<mask id="path-37-inside-18_9578_31380" fill="white">
<path d="M138 46H184V92H138V46Z"/>
</mask>
<path d="M184 92V92.4792H184.479V92H184ZM183.521 46V92H184.479V46H183.521ZM184 91.5208H138V92.4792H184V91.5208Z" fill="#22262F" mask="url(#path-37-inside-18_9578_31380)"/>
<mask id="path-39-inside-19_9578_31380" fill="white">
<path d="M184 46H230V92H184V46Z"/>
</mask>
<path d="M230 92V92.4792H230.479V92H230ZM229.521 46V92H230.479V46H229.521ZM230 91.5208H184V92.4792H230V91.5208Z" fill="#22262F" mask="url(#path-39-inside-19_9578_31380)"/>
<mask id="path-41-inside-20_9578_31380" fill="white">
<path d="M230 46H276V92H230V46Z"/>
</mask>
<path d="M230 46H276V92H230V46Z" fill="#22262F"/>
<path d="M276 92V92.4792H276.479V92H276ZM275.521 46V92H276.479V46H275.521ZM276 91.5208H230V92.4792H276V91.5208Z" fill="#22262F" mask="url(#path-41-inside-20_9578_31380)"/>
<mask id="path-43-inside-21_9578_31380" fill="white">
<path d="M276 46H322V92H276V46Z"/>
</mask>
<path d="M322 92V92.4792H322.479V92H322ZM321.521 46V92H322.479V46H321.521ZM322 91.5208H276V92.4792H322V91.5208Z" fill="#22262F" mask="url(#path-43-inside-21_9578_31380)"/>
<mask id="path-45-inside-22_9578_31380" fill="white">
<path d="M322 46H368V92H322V46Z"/>
</mask>
<path d="M368 92V92.4792H368.479V92H368ZM367.521 46V92H368.479V46H367.521ZM368 91.5208H322V92.4792H368V91.5208Z" fill="#22262F" mask="url(#path-45-inside-22_9578_31380)"/>
<mask id="path-47-inside-23_9578_31380" fill="white">
<path d="M368 46H414V92H368V46Z"/>
</mask>
<path d="M414 92V92.4792H414.479V92H414ZM413.521 46V92H414.479V46H413.521ZM414 91.5208H368V92.4792H414V91.5208Z" fill="#22262F" mask="url(#path-47-inside-23_9578_31380)"/>
<mask id="path-49-inside-24_9578_31380" fill="white">
<path d="M414 46H460V92H414V46Z"/>
</mask>
<path d="M460 92V92.4792H460.479V92H460ZM459.521 46V92H460.479V46H459.521ZM460 91.5208H414V92.4792H460V91.5208Z" fill="#22262F" mask="url(#path-49-inside-24_9578_31380)"/>
<mask id="path-51-inside-25_9578_31380" fill="white">
<path d="M460 46H506V92H460V46Z"/>
</mask>
<path d="M506 92V92.4792H506.479V92H506ZM505.521 46V92H506.479V46H505.521ZM506 91.5208H460V92.4792H506V91.5208Z" fill="#22262F" mask="url(#path-51-inside-25_9578_31380)"/>
<mask id="path-53-inside-26_9578_31380" fill="white">
<path d="M506 46H552V92H506V46Z"/>
</mask>
<path d="M552 92V92.4792H552.479V92H552ZM551.521 46V92H552.479V46H551.521ZM552 91.5208H506V92.4792H552V91.5208Z" fill="#22262F" mask="url(#path-53-inside-26_9578_31380)"/>
<mask id="path-55-inside-27_9578_31380" fill="white">
<path d="M552 46H598V92H552V46Z"/>
</mask>
<path d="M598 92V92.4792H598.479V92H598ZM597.521 46V92H598.479V46H597.521ZM598 91.5208H552V92.4792H598V91.5208Z" fill="#22262F" mask="url(#path-55-inside-27_9578_31380)"/>
<mask id="path-57-inside-28_9578_31380" fill="white">
<path d="M598 46H644V92H598V46Z"/>
</mask>
<path d="M644 92V92.4792H644.479V92H644ZM643.521 46V92H644.479V46H643.521ZM644 91.5208H598V92.4792H644V91.5208Z" fill="#22262F" mask="url(#path-57-inside-28_9578_31380)"/>
<mask id="path-59-inside-29_9578_31380" fill="white">
<path d="M644 46H690V92H644V46Z"/>
</mask>
<path d="M644 46H690V92H644V46Z" fill="#22262F"/>
<path d="M690 92V92.4792H690.479V92H690ZM689.521 46V92H690.479V46H689.521ZM690 91.5208H644V92.4792H690V91.5208Z" fill="#22262F" mask="url(#path-59-inside-29_9578_31380)"/>
<mask id="path-61-inside-30_9578_31380" fill="white">
<path d="M690 46H736V92H690V46Z"/>
</mask>
<path d="M736 92V92.4792H736.479V92H736ZM735.521 46V92H736.479V46H735.521ZM736 91.5208H690V92.4792H736V91.5208Z" fill="#22262F" mask="url(#path-61-inside-30_9578_31380)"/>
<mask id="path-63-inside-31_9578_31380" fill="white">
<path d="M736 46H782V92H736V46Z"/>
</mask>
<path d="M782 92V92.4792H782.479V92H782ZM781.521 46V92H782.479V46H781.521ZM782 91.5208H736V92.4792H782V91.5208Z" fill="#22262F" mask="url(#path-63-inside-31_9578_31380)"/>
<mask id="path-65-inside-32_9578_31380" fill="white">
<path d="M782 46H828V92H782V46Z"/>
</mask>
<path d="M828 92V92.4792H828.479V92H828ZM827.521 46V92H828.479V46H827.521ZM828 91.5208H782V92.4792H828V91.5208Z" fill="#22262F" mask="url(#path-65-inside-32_9578_31380)"/>
<mask id="path-67-inside-33_9578_31380" fill="white">
<path d="M92 92H138V138H92V92Z"/>
</mask>
<path d="M138 138V138.479H138.479V138H138ZM137.521 92V138H138.479V92H137.521ZM138 137.521H92V138.479H138V137.521Z" fill="#22262F" mask="url(#path-67-inside-33_9578_31380)"/>
<mask id="path-69-inside-34_9578_31380" fill="white">
<path d="M138 92H184V138H138V92Z"/>
</mask>
<path d="M184 138V138.479H184.479V138H184ZM183.521 92V138H184.479V92H183.521ZM184 137.521H138V138.479H184V137.521Z" fill="#22262F" mask="url(#path-69-inside-34_9578_31380)"/>
<mask id="path-71-inside-35_9578_31380" fill="white">
<path d="M184 92H230V138H184V92Z"/>
</mask>
<path d="M230 138V138.479H230.479V138H230ZM229.521 92V138H230.479V92H229.521ZM230 137.521H184V138.479H230V137.521Z" fill="#22262F" mask="url(#path-71-inside-35_9578_31380)"/>
<mask id="path-73-inside-36_9578_31380" fill="white">
<path d="M230 92H276V138H230V92Z"/>
</mask>
<path d="M276 138V138.479H276.479V138H276ZM275.521 92V138H276.479V92H275.521ZM276 137.521H230V138.479H276V137.521Z" fill="#22262F" mask="url(#path-73-inside-36_9578_31380)"/>
<mask id="path-75-inside-37_9578_31380" fill="white">
<path d="M276 92H322V138H276V92Z"/>
</mask>
<path d="M322 138V138.479H322.479V138H322ZM321.521 92V138H322.479V92H321.521ZM322 137.521H276V138.479H322V137.521Z" fill="#22262F" mask="url(#path-75-inside-37_9578_31380)"/>
<mask id="path-77-inside-38_9578_31380" fill="white">
<path d="M322 92H368V138H322V92Z"/>
</mask>
<path d="M322 92H368V138H322V92Z" fill="#22262F"/>
<path d="M368 138V138.479H368.479V138H368ZM367.521 92V138H368.479V92H367.521ZM368 137.521H322V138.479H368V137.521Z" fill="#22262F" mask="url(#path-77-inside-38_9578_31380)"/>
<mask id="path-79-inside-39_9578_31380" fill="white">
<path d="M368 92H414V138H368V92Z"/>
</mask>
<path d="M414 138V138.479H414.479V138H414ZM413.521 92V138H414.479V92H413.521ZM414 137.521H368V138.479H414V137.521Z" fill="#22262F" mask="url(#path-79-inside-39_9578_31380)"/>
<mask id="path-81-inside-40_9578_31380" fill="white">
<path d="M414 92H460V138H414V92Z"/>
</mask>
<path d="M460 138V138.479H460.479V138H460ZM459.521 92V138H460.479V92H459.521ZM460 137.521H414V138.479H460V137.521Z" fill="#22262F" mask="url(#path-81-inside-40_9578_31380)"/>
<mask id="path-83-inside-41_9578_31380" fill="white">
<path d="M460 92H506V138H460V92Z"/>
</mask>
<path d="M506 138V138.479H506.479V138H506ZM505.521 92V138H506.479V92H505.521ZM506 137.521H460V138.479H506V137.521Z" fill="#22262F" mask="url(#path-83-inside-41_9578_31380)"/>
<mask id="path-85-inside-42_9578_31380" fill="white">
<path d="M506 92H552V138H506V92Z"/>
</mask>
<path d="M506 92H552V138H506V92Z" fill="#22262F"/>
<path d="M552 138V138.479H552.479V138H552ZM551.521 92V138H552.479V92H551.521ZM552 137.521H506V138.479H552V137.521Z" fill="#22262F" mask="url(#path-85-inside-42_9578_31380)"/>
<mask id="path-87-inside-43_9578_31380" fill="white">
<path d="M552 92H598V138H552V92Z"/>
</mask>
<path d="M598 138V138.479H598.479V138H598ZM597.521 92V138H598.479V92H597.521ZM598 137.521H552V138.479H598V137.521Z" fill="#22262F" mask="url(#path-87-inside-43_9578_31380)"/>
<mask id="path-89-inside-44_9578_31380" fill="white">
<path d="M598 92H644V138H598V92Z"/>
</mask>
<path d="M644 138V138.479H644.479V138H644ZM643.521 92V138H644.479V92H643.521ZM644 137.521H598V138.479H644V137.521Z" fill="#22262F" mask="url(#path-89-inside-44_9578_31380)"/>
<mask id="path-91-inside-45_9578_31380" fill="white">
<path d="M644 92H690V138H644V92Z"/>
</mask>
<path d="M690 138V138.479H690.479V138H690ZM689.521 92V138H690.479V92H689.521ZM690 137.521H644V138.479H690V137.521Z" fill="#22262F" mask="url(#path-91-inside-45_9578_31380)"/>
<mask id="path-93-inside-46_9578_31380" fill="white">
<path d="M690 92H736V138H690V92Z"/>
</mask>
<path d="M736 138V138.479H736.479V138H736ZM735.521 92V138H736.479V92H735.521ZM736 137.521H690V138.479H736V137.521Z" fill="#22262F" mask="url(#path-93-inside-46_9578_31380)"/>
<mask id="path-95-inside-47_9578_31380" fill="white">
<path d="M736 92H782V138H736V92Z"/>
</mask>
<path d="M782 138V138.479H782.479V138H782ZM781.521 92V138H782.479V92H781.521ZM782 137.521H736V138.479H782V137.521Z" fill="#22262F" mask="url(#path-95-inside-47_9578_31380)"/>
<mask id="path-97-inside-48_9578_31380" fill="white">
<path d="M782 92H828V138H782V92Z"/>
</mask>
<path d="M828 138V138.479H828.479V138H828ZM827.521 92V138H828.479V92H827.521ZM828 137.521H782V138.479H828V137.521Z" fill="#22262F" mask="url(#path-97-inside-48_9578_31380)"/>
<mask id="path-99-inside-49_9578_31380" fill="white">
<path d="M92 138H138V184H92V138Z"/>
</mask>
<path d="M92 138H138V184H92V138Z" fill="#22262F"/>
<path d="M138 184V184.479H138.479V184H138ZM137.521 138V184H138.479V138H137.521ZM138 183.521H92V184.479H138V183.521Z" fill="#22262F" mask="url(#path-99-inside-49_9578_31380)"/>
<mask id="path-101-inside-50_9578_31380" fill="white">
<path d="M138 138H184V184H138V138Z"/>
</mask>
<path d="M184 184V184.479H184.479V184H184ZM183.521 138V184H184.479V138H183.521ZM184 183.521H138V184.479H184V183.521Z" fill="#22262F" mask="url(#path-101-inside-50_9578_31380)"/>
<mask id="path-103-inside-51_9578_31380" fill="white">
<path d="M184 138H230V184H184V138Z"/>
</mask>
<path d="M230 184V184.479H230.479V184H230ZM229.521 138V184H230.479V138H229.521ZM230 183.521H184V184.479H230V183.521Z" fill="#22262F" mask="url(#path-103-inside-51_9578_31380)"/>
<mask id="path-105-inside-52_9578_31380" fill="white">
<path d="M230 138H276V184H230V138Z"/>
</mask>
<path d="M276 184V184.479H276.479V184H276ZM275.521 138V184H276.479V138H275.521ZM276 183.521H230V184.479H276V183.521Z" fill="#22262F" mask="url(#path-105-inside-52_9578_31380)"/>
<mask id="path-107-inside-53_9578_31380" fill="white">
<path d="M276 138H322V184H276V138Z"/>
</mask>
<path d="M322 184V184.479H322.479V184H322ZM321.521 138V184H322.479V138H321.521ZM322 183.521H276V184.479H322V183.521Z" fill="#22262F" mask="url(#path-107-inside-53_9578_31380)"/>
<mask id="path-109-inside-54_9578_31380" fill="white">
<path d="M322 138H368V184H322V138Z"/>
</mask>
<path d="M368 184V184.479H368.479V184H368ZM367.521 138V184H368.479V138H367.521ZM368 183.521H322V184.479H368V183.521Z" fill="#22262F" mask="url(#path-109-inside-54_9578_31380)"/>
<mask id="path-111-inside-55_9578_31380" fill="white">
<path d="M368 138H414V184H368V138Z"/>
</mask>
<path d="M414 184V184.479H414.479V184H414ZM413.521 138V184H414.479V138H413.521ZM414 183.521H368V184.479H414V183.521Z" fill="#22262F" mask="url(#path-111-inside-55_9578_31380)"/>
<mask id="path-113-inside-56_9578_31380" fill="white">
<path d="M414 138H460V184H414V138Z"/>
</mask>
<path d="M460 184V184.479H460.479V184H460ZM459.521 138V184H460.479V138H459.521ZM460 183.521H414V184.479H460V183.521Z" fill="#22262F" mask="url(#path-113-inside-56_9578_31380)"/>
<mask id="path-115-inside-57_9578_31380" fill="white">
<path d="M460 138H506V184H460V138Z"/>
</mask>
<path d="M506 184V184.479H506.479V184H506ZM505.521 138V184H506.479V138H505.521ZM506 183.521H460V184.479H506V183.521Z" fill="#22262F" mask="url(#path-115-inside-57_9578_31380)"/>
<mask id="path-117-inside-58_9578_31380" fill="white">
<path d="M506 138H552V184H506V138Z"/>
</mask>
<path d="M552 184V184.479H552.479V184H552ZM551.521 138V184H552.479V138H551.521ZM552 183.521H506V184.479H552V183.521Z" fill="#22262F" mask="url(#path-117-inside-58_9578_31380)"/>
<mask id="path-119-inside-59_9578_31380" fill="white">
<path d="M552 138H598V184H552V138Z"/>
</mask>
<path d="M598 184V184.479H598.479V184H598ZM597.521 138V184H598.479V138H597.521ZM598 183.521H552V184.479H598V183.521Z" fill="#22262F" mask="url(#path-119-inside-59_9578_31380)"/>
<mask id="path-121-inside-60_9578_31380" fill="white">
<path d="M598 138H644V184H598V138Z"/>
</mask>
<path d="M644 184V184.479H644.479V184H644ZM643.521 138V184H644.479V138H643.521ZM644 183.521H598V184.479H644V183.521Z" fill="#22262F" mask="url(#path-121-inside-60_9578_31380)"/>
<mask id="path-123-inside-61_9578_31380" fill="white">
<path d="M644 138H690V184H644V138Z"/>
</mask>
<path d="M644 138H690V184H644V138Z" fill="#22262F"/>
<path d="M690 184V184.479H690.479V184H690ZM689.521 138V184H690.479V138H689.521ZM690 183.521H644V184.479H690V183.521Z" fill="#22262F" mask="url(#path-123-inside-61_9578_31380)"/>
<mask id="path-125-inside-62_9578_31380" fill="white">
<path d="M690 138H736V184H690V138Z"/>
</mask>
<path d="M736 184V184.479H736.479V184H736ZM735.521 138V184H736.479V138H735.521ZM736 183.521H690V184.479H736V183.521Z" fill="#22262F" mask="url(#path-125-inside-62_9578_31380)"/>
<mask id="path-127-inside-63_9578_31380" fill="white">
<path d="M736 138H782V184H736V138Z"/>
</mask>
<path d="M782 184V184.479H782.479V184H782ZM781.521 138V184H782.479V138H781.521ZM782 183.521H736V184.479H782V183.521Z" fill="#22262F" mask="url(#path-127-inside-63_9578_31380)"/>
<mask id="path-129-inside-64_9578_31380" fill="white">
<path d="M782 138H828V184H782V138Z"/>
</mask>
<path d="M828 184V184.479H828.479V184H828ZM827.521 138V184H828.479V138H827.521ZM828 183.521H782V184.479H828V183.521Z" fill="#22262F" mask="url(#path-129-inside-64_9578_31380)"/>
<mask id="path-131-inside-65_9578_31380" fill="white">
<path d="M92 184H138V230H92V184Z"/>
</mask>
<path d="M138 230V230.479H138.479V230H138ZM137.521 184V230H138.479V184H137.521ZM138 229.521H92V230.479H138V229.521Z" fill="#22262F" mask="url(#path-131-inside-65_9578_31380)"/>
<mask id="path-133-inside-66_9578_31380" fill="white">
<path d="M138 184H184V230H138V184Z"/>
</mask>
<path d="M184 230V230.479H184.479V230H184ZM183.521 184V230H184.479V184H183.521ZM184 229.521H138V230.479H184V229.521Z" fill="#22262F" mask="url(#path-133-inside-66_9578_31380)"/>
<mask id="path-135-inside-67_9578_31380" fill="white">
<path d="M184 184H230V230H184V184Z"/>
</mask>
<path d="M230 230V230.479H230.479V230H230ZM229.521 184V230H230.479V184H229.521ZM230 229.521H184V230.479H230V229.521Z" fill="#22262F" mask="url(#path-135-inside-67_9578_31380)"/>
<mask id="path-137-inside-68_9578_31380" fill="white">
<path d="M230 184H276V230H230V184Z"/>
</mask>
<path d="M276 230V230.479H276.479V230H276ZM275.521 184V230H276.479V184H275.521ZM276 229.521H230V230.479H276V229.521Z" fill="#22262F" mask="url(#path-137-inside-68_9578_31380)"/>
<mask id="path-139-inside-69_9578_31380" fill="white">
<path d="M276 184H322V230H276V184Z"/>
</mask>
<path d="M322 230V230.479H322.479V230H322ZM321.521 184V230H322.479V184H321.521ZM322 229.521H276V230.479H322V229.521Z" fill="#22262F" mask="url(#path-139-inside-69_9578_31380)"/>
<mask id="path-141-inside-70_9578_31380" fill="white">
<path d="M322 184H368V230H322V184Z"/>
</mask>
<path d="M368 230V230.479H368.479V230H368ZM367.521 184V230H368.479V184H367.521ZM368 229.521H322V230.479H368V229.521Z" fill="#22262F" mask="url(#path-141-inside-70_9578_31380)"/>
<mask id="path-143-inside-71_9578_31380" fill="white">
<path d="M368 184H414V230H368V184Z"/>
</mask>
<path d="M368 184H414V230H368V184Z" fill="#22262F"/>
<path d="M414 230V230.479H414.479V230H414ZM413.521 184V230H414.479V184H413.521ZM414 229.521H368V230.479H414V229.521Z" fill="#22262F" mask="url(#path-143-inside-71_9578_31380)"/>
<mask id="path-145-inside-72_9578_31380" fill="white">
<path d="M414 184H460V230H414V184Z"/>
</mask>
<path d="M460 230V230.479H460.479V230H460ZM459.521 184V230H460.479V184H459.521ZM460 229.521H414V230.479H460V229.521Z" fill="#22262F" mask="url(#path-145-inside-72_9578_31380)"/>
<mask id="path-147-inside-73_9578_31380" fill="white">
<path d="M460 184H506V230H460V184Z"/>
</mask>
<path d="M506 230V230.479H506.479V230H506ZM505.521 184V230H506.479V184H505.521ZM506 229.521H460V230.479H506V229.521Z" fill="#22262F" mask="url(#path-147-inside-73_9578_31380)"/>
<mask id="path-149-inside-74_9578_31380" fill="white">
<path d="M506 184H552V230H506V184Z"/>
</mask>
<path d="M552 230V230.479H552.479V230H552ZM551.521 184V230H552.479V184H551.521ZM552 229.521H506V230.479H552V229.521Z" fill="#22262F" mask="url(#path-149-inside-74_9578_31380)"/>
<mask id="path-151-inside-75_9578_31380" fill="white">
<path d="M552 184H598V230H552V184Z"/>
</mask>
<path d="M598 230V230.479H598.479V230H598ZM597.521 184V230H598.479V184H597.521ZM598 229.521H552V230.479H598V229.521Z" fill="#22262F" mask="url(#path-151-inside-75_9578_31380)"/>
<mask id="path-153-inside-76_9578_31380" fill="white">
<path d="M598 184H644V230H598V184Z"/>
</mask>
<path d="M644 230V230.479H644.479V230H644ZM643.521 184V230H644.479V184H643.521ZM644 229.521H598V230.479H644V229.521Z" fill="#22262F" mask="url(#path-153-inside-76_9578_31380)"/>
<mask id="path-155-inside-77_9578_31380" fill="white">
<path d="M644 184H690V230H644V184Z"/>
</mask>
<path d="M690 230V230.479H690.479V230H690ZM689.521 184V230H690.479V184H689.521ZM690 229.521H644V230.479H690V229.521Z" fill="#22262F" mask="url(#path-155-inside-77_9578_31380)"/>
<mask id="path-157-inside-78_9578_31380" fill="white">
<path d="M690 184H736V230H690V184Z"/>
</mask>
<path d="M736 230V230.479H736.479V230H736ZM735.521 184V230H736.479V184H735.521ZM736 229.521H690V230.479H736V229.521Z" fill="#22262F" mask="url(#path-157-inside-78_9578_31380)"/>
<mask id="path-159-inside-79_9578_31380" fill="white">
<path d="M736 184H782V230H736V184Z"/>
</mask>
<path d="M782 230V230.479H782.479V230H782ZM781.521 184V230H782.479V184H781.521ZM782 229.521H736V230.479H782V229.521Z" fill="#22262F" mask="url(#path-159-inside-79_9578_31380)"/>
<mask id="path-161-inside-80_9578_31380" fill="white">
<path d="M782 184H828V230H782V184Z"/>
</mask>
<path d="M828 230V230.479H828.479V230H828ZM827.521 184V230H828.479V184H827.521ZM828 229.521H782V230.479H828V229.521Z" fill="#22262F" mask="url(#path-161-inside-80_9578_31380)"/>
<mask id="path-163-inside-81_9578_31380" fill="white">
<path d="M92 230H138V276H92V230Z"/>
</mask>
<path d="M138 276V276.479H138.479V276H138ZM137.521 230V276H138.479V230H137.521ZM138 275.521H92V276.479H138V275.521Z" fill="#22262F" mask="url(#path-163-inside-81_9578_31380)"/>
<mask id="path-165-inside-82_9578_31380" fill="white">
<path d="M138 230H184V276H138V230Z"/>
</mask>
<path d="M184 276V276.479H184.479V276H184ZM183.521 230V276H184.479V230H183.521ZM184 275.521H138V276.479H184V275.521Z" fill="#22262F" mask="url(#path-165-inside-82_9578_31380)"/>
<mask id="path-167-inside-83_9578_31380" fill="white">
<path d="M184 230H230V276H184V230Z"/>
</mask>
<path d="M230 276V276.479H230.479V276H230ZM229.521 230V276H230.479V230H229.521ZM230 275.521H184V276.479H230V275.521Z" fill="#22262F" mask="url(#path-167-inside-83_9578_31380)"/>
<mask id="path-169-inside-84_9578_31380" fill="white">
<path d="M230 230H276V276H230V230Z"/>
</mask>
<path d="M230 230H276V276H230V230Z" fill="#22262F"/>
<path d="M276 276V276.479H276.479V276H276ZM275.521 230V276H276.479V230H275.521ZM276 275.521H230V276.479H276V275.521Z" fill="#22262F" mask="url(#path-169-inside-84_9578_31380)"/>
<mask id="path-171-inside-85_9578_31380" fill="white">
<path d="M276 230H322V276H276V230Z"/>
</mask>
<path d="M322 276V276.479H322.479V276H322ZM321.521 230V276H322.479V230H321.521ZM322 275.521H276V276.479H322V275.521Z" fill="#22262F" mask="url(#path-171-inside-85_9578_31380)"/>
<mask id="path-173-inside-86_9578_31380" fill="white">
<path d="M322 230H368V276H322V230Z"/>
</mask>
<path d="M368 276V276.479H368.479V276H368ZM367.521 230V276H368.479V230H367.521ZM368 275.521H322V276.479H368V275.521Z" fill="#22262F" mask="url(#path-173-inside-86_9578_31380)"/>
<mask id="path-175-inside-87_9578_31380" fill="white">
<path d="M368 230H414V276H368V230Z"/>
</mask>
<path d="M414 276V276.479H414.479V276H414ZM413.521 230V276H414.479V230H413.521ZM414 275.521H368V276.479H414V275.521Z" fill="#22262F" mask="url(#path-175-inside-87_9578_31380)"/>
<mask id="path-177-inside-88_9578_31380" fill="white">
<path d="M414 230H460V276H414V230Z"/>
</mask>
<path d="M460 276V276.479H460.479V276H460ZM459.521 230V276H460.479V230H459.521ZM460 275.521H414V276.479H460V275.521Z" fill="#22262F" mask="url(#path-177-inside-88_9578_31380)"/>
<mask id="path-179-inside-89_9578_31380" fill="white">
<path d="M460 230H506V276H460V230Z"/>
</mask>
<path d="M506 276V276.479H506.479V276H506ZM505.521 230V276H506.479V230H505.521ZM506 275.521H460V276.479H506V275.521Z" fill="#22262F" mask="url(#path-179-inside-89_9578_31380)"/>
<mask id="path-181-inside-90_9578_31380" fill="white">
<path d="M506 230H552V276H506V230Z"/>
</mask>
<path d="M506 230H552V276H506V230Z" fill="#22262F"/>
<path d="M552 276V276.479H552.479V276H552ZM551.521 230V276H552.479V230H551.521ZM552 275.521H506V276.479H552V275.521Z" fill="#22262F" mask="url(#path-181-inside-90_9578_31380)"/>
<mask id="path-183-inside-91_9578_31380" fill="white">
<path d="M552 230H598V276H552V230Z"/>
</mask>
<path d="M598 276V276.479H598.479V276H598ZM597.521 230V276H598.479V230H597.521ZM598 275.521H552V276.479H598V275.521Z" fill="#22262F" mask="url(#path-183-inside-91_9578_31380)"/>
<mask id="path-185-inside-92_9578_31380" fill="white">
<path d="M598 230H644V276H598V230Z"/>
</mask>
<path d="M644 276V276.479H644.479V276H644ZM643.521 230V276H644.479V230H643.521ZM644 275.521H598V276.479H644V275.521Z" fill="#22262F" mask="url(#path-185-inside-92_9578_31380)"/>
<mask id="path-187-inside-93_9578_31380" fill="white">
<path d="M644 230H690V276H644V230Z"/>
</mask>
<path d="M690 276V276.479H690.479V276H690ZM689.521 230V276H690.479V230H689.521ZM690 275.521H644V276.479H690V275.521Z" fill="#22262F" mask="url(#path-187-inside-93_9578_31380)"/>
<mask id="path-189-inside-94_9578_31380" fill="white">
<path d="M690 230H736V276H690V230Z"/>
</mask>
<path d="M736 276V276.479H736.479V276H736ZM735.521 230V276H736.479V230H735.521ZM736 275.521H690V276.479H736V275.521Z" fill="#22262F" mask="url(#path-189-inside-94_9578_31380)"/>
<mask id="path-191-inside-95_9578_31380" fill="white">
<path d="M736 230H782V276H736V230Z"/>
</mask>
<path d="M782 276V276.479H782.479V276H782ZM781.521 230V276H782.479V230H781.521ZM782 275.521H736V276.479H782V275.521Z" fill="#22262F" mask="url(#path-191-inside-95_9578_31380)"/>
<mask id="path-193-inside-96_9578_31380" fill="white">
<path d="M782 230H828V276H782V230Z"/>
</mask>
<path d="M828 276V276.479H828.479V276H828ZM827.521 230V276H828.479V230H827.521ZM828 275.521H782V276.479H828V275.521Z" fill="#22262F" mask="url(#path-193-inside-96_9578_31380)"/>
<mask id="path-195-inside-97_9578_31380" fill="white">
<path d="M92 276H138V322H92V276Z"/>
</mask>
<path d="M138 322V322.479H138.479V322H138ZM137.521 276V322H138.479V276H137.521ZM138 321.521H92V322.479H138V321.521Z" fill="#22262F" mask="url(#path-195-inside-97_9578_31380)"/>
<mask id="path-197-inside-98_9578_31380" fill="white">
<path d="M138 276H184V322H138V276Z"/>
</mask>
<path d="M138 276H184V322H138V276Z" fill="#22262F"/>
<path d="M184 322V322.479H184.479V322H184ZM183.521 276V322H184.479V276H183.521ZM184 321.521H138V322.479H184V321.521Z" fill="#22262F" mask="url(#path-197-inside-98_9578_31380)"/>
<mask id="path-199-inside-99_9578_31380" fill="white">
<path d="M184 276H230V322H184V276Z"/>
</mask>
<path d="M230 322V322.479H230.479V322H230ZM229.521 276V322H230.479V276H229.521ZM230 321.521H184V322.479H230V321.521Z" fill="#22262F" mask="url(#path-199-inside-99_9578_31380)"/>
<mask id="path-201-inside-100_9578_31380" fill="white">
<path d="M230 276H276V322H230V276Z"/>
</mask>
<path d="M276 322V322.479H276.479V322H276ZM275.521 276V322H276.479V276H275.521ZM276 321.521H230V322.479H276V321.521Z" fill="#22262F" mask="url(#path-201-inside-100_9578_31380)"/>
<mask id="path-203-inside-101_9578_31380" fill="white">
<path d="M276 276H322V322H276V276Z"/>
</mask>
<path d="M322 322V322.479H322.479V322H322ZM321.521 276V322H322.479V276H321.521ZM322 321.521H276V322.479H322V321.521Z" fill="#22262F" mask="url(#path-203-inside-101_9578_31380)"/>
<mask id="path-205-inside-102_9578_31380" fill="white">
<path d="M322 276H368V322H322V276Z"/>
</mask>
<path d="M368 322V322.479H368.479V322H368ZM367.521 276V322H368.479V276H367.521ZM368 321.521H322V322.479H368V321.521Z" fill="#22262F" mask="url(#path-205-inside-102_9578_31380)"/>
<mask id="path-207-inside-103_9578_31380" fill="white">
<path d="M368 276H414V322H368V276Z"/>
</mask>
<path d="M414 322V322.479H414.479V322H414ZM413.521 276V322H414.479V276H413.521ZM414 321.521H368V322.479H414V321.521Z" fill="#22262F" mask="url(#path-207-inside-103_9578_31380)"/>
<mask id="path-209-inside-104_9578_31380" fill="white">
<path d="M414 276H460V322H414V276Z"/>
</mask>
<path d="M460 322V322.479H460.479V322H460ZM459.521 276V322H460.479V276H459.521ZM460 321.521H414V322.479H460V321.521Z" fill="#22262F" mask="url(#path-209-inside-104_9578_31380)"/>
<mask id="path-211-inside-105_9578_31380" fill="white">
<path d="M460 276H506V322H460V276Z"/>
</mask>
<path d="M506 322V322.479H506.479V322H506ZM505.521 276V322H506.479V276H505.521ZM506 321.521H460V322.479H506V321.521Z" fill="#22262F" mask="url(#path-211-inside-105_9578_31380)"/>
<mask id="path-213-inside-106_9578_31380" fill="white">
<path d="M506 276H552V322H506V276Z"/>
</mask>
<path d="M552 322V322.479H552.479V322H552ZM551.521 276V322H552.479V276H551.521ZM552 321.521H506V322.479H552V321.521Z" fill="#22262F" mask="url(#path-213-inside-106_9578_31380)"/>
<mask id="path-215-inside-107_9578_31380" fill="white">
<path d="M552 276H598V322H552V276Z"/>
</mask>
<path d="M598 322V322.479H598.479V322H598ZM597.521 276V322H598.479V276H597.521ZM598 321.521H552V322.479H598V321.521Z" fill="#22262F" mask="url(#path-215-inside-107_9578_31380)"/>
<mask id="path-217-inside-108_9578_31380" fill="white">
<path d="M598 276H644V322H598V276Z"/>
</mask>
<path d="M644 322V322.479H644.479V322H644ZM643.521 276V322H644.479V276H643.521ZM644 321.521H598V322.479H644V321.521Z" fill="#22262F" mask="url(#path-217-inside-108_9578_31380)"/>
<mask id="path-219-inside-109_9578_31380" fill="white">
<path d="M644 276H690V322H644V276Z"/>
</mask>
<path d="M690 322V322.479H690.479V322H690ZM689.521 276V322H690.479V276H689.521ZM690 321.521H644V322.479H690V321.521Z" fill="#22262F" mask="url(#path-219-inside-109_9578_31380)"/>
<mask id="path-221-inside-110_9578_31380" fill="white">
<path d="M690 276H736V322H690V276Z"/>
</mask>
<path d="M736 322V322.479H736.479V322H736ZM735.521 276V322H736.479V276H735.521ZM736 321.521H690V322.479H736V321.521Z" fill="#22262F" mask="url(#path-221-inside-110_9578_31380)"/>
<mask id="path-223-inside-111_9578_31380" fill="white">
<path d="M736 276H782V322H736V276Z"/>
</mask>
<path d="M736 276H782V322H736V276Z" fill="#22262F"/>
<path d="M782 322V322.479H782.479V322H782ZM781.521 276V322H782.479V276H781.521ZM782 321.521H736V322.479H782V321.521Z" fill="#22262F" mask="url(#path-223-inside-111_9578_31380)"/>
<mask id="path-225-inside-112_9578_31380" fill="white">
<path d="M782 276H828V322H782V276Z"/>
</mask>
<path d="M828 322V322.479H828.479V322H828ZM827.521 276V322H828.479V276H827.521ZM828 321.521H782V322.479H828V321.521Z" fill="#22262F" mask="url(#path-225-inside-112_9578_31380)"/>
<mask id="path-227-inside-113_9578_31380" fill="white">
<path d="M92 322H138V368H92V322Z"/>
</mask>
<path d="M138 368V368.479H138.479V368H138ZM137.521 322V368H138.479V322H137.521ZM138 367.521H92V368.479H138V367.521Z" fill="#22262F" mask="url(#path-227-inside-113_9578_31380)"/>
<mask id="path-229-inside-114_9578_31380" fill="white">
<path d="M138 322H184V368H138V322Z"/>
</mask>
<path d="M184 368V368.479H184.479V368H184ZM183.521 322V368H184.479V322H183.521ZM184 367.521H138V368.479H184V367.521Z" fill="#22262F" mask="url(#path-229-inside-114_9578_31380)"/>
<mask id="path-231-inside-115_9578_31380" fill="white">
<path d="M184 322H230V368H184V322Z"/>
</mask>
<path d="M230 368V368.479H230.479V368H230ZM229.521 322V368H230.479V322H229.521ZM230 367.521H184V368.479H230V367.521Z" fill="#22262F" mask="url(#path-231-inside-115_9578_31380)"/>
<mask id="path-233-inside-116_9578_31380" fill="white">
<path d="M230 322H276V368H230V322Z"/>
</mask>
<path d="M276 368V368.479H276.479V368H276ZM275.521 322V368H276.479V322H275.521ZM276 367.521H230V368.479H276V367.521Z" fill="#22262F" mask="url(#path-233-inside-116_9578_31380)"/>
<mask id="path-235-inside-117_9578_31380" fill="white">
<path d="M276 322H322V368H276V322Z"/>
</mask>
<path d="M322 368V368.479H322.479V368H322ZM321.521 322V368H322.479V322H321.521ZM322 367.521H276V368.479H322V367.521Z" fill="#22262F" mask="url(#path-235-inside-117_9578_31380)"/>
<mask id="path-237-inside-118_9578_31380" fill="white">
<path d="M322 322H368V368H322V322Z"/>
</mask>
<path d="M368 368V368.479H368.479V368H368ZM367.521 322V368H368.479V322H367.521ZM368 367.521H322V368.479H368V367.521Z" fill="#22262F" mask="url(#path-237-inside-118_9578_31380)"/>
<mask id="path-239-inside-119_9578_31380" fill="white">
<path d="M368 322H414V368H368V322Z"/>
</mask>
<path d="M368 322H414V368H368V322Z" fill="#22262F"/>
<path d="M414 368V368.479H414.479V368H414ZM413.521 322V368H414.479V322H413.521ZM414 367.521H368V368.479H414V367.521Z" fill="#22262F" mask="url(#path-239-inside-119_9578_31380)"/>
<mask id="path-241-inside-120_9578_31380" fill="white">
<path d="M414 322H460V368H414V322Z"/>
</mask>
<path d="M460 368V368.479H460.479V368H460ZM459.521 322V368H460.479V322H459.521ZM460 367.521H414V368.479H460V367.521Z" fill="#22262F" mask="url(#path-241-inside-120_9578_31380)"/>
<mask id="path-243-inside-121_9578_31380" fill="white">
<path d="M460 322H506V368H460V322Z"/>
</mask>
<path d="M506 368V368.479H506.479V368H506ZM505.521 322V368H506.479V322H505.521ZM506 367.521H460V368.479H506V367.521Z" fill="#22262F" mask="url(#path-243-inside-121_9578_31380)"/>
<mask id="path-245-inside-122_9578_31380" fill="white">
<path d="M506 322H552V368H506V322Z"/>
</mask>
<path d="M552 368V368.479H552.479V368H552ZM551.521 322V368H552.479V322H551.521ZM552 367.521H506V368.479H552V367.521Z" fill="#22262F" mask="url(#path-245-inside-122_9578_31380)"/>
<mask id="path-247-inside-123_9578_31380" fill="white">
<path d="M552 322H598V368H552V322Z"/>
</mask>
<path d="M598 368V368.479H598.479V368H598ZM597.521 322V368H598.479V322H597.521ZM598 367.521H552V368.479H598V367.521Z" fill="#22262F" mask="url(#path-247-inside-123_9578_31380)"/>
<mask id="path-249-inside-124_9578_31380" fill="white">
<path d="M598 322H644V368H598V322Z"/>
</mask>
<path d="M644 368V368.479H644.479V368H644ZM643.521 322V368H644.479V322H643.521ZM644 367.521H598V368.479H644V367.521Z" fill="#22262F" mask="url(#path-249-inside-124_9578_31380)"/>
<mask id="path-251-inside-125_9578_31380" fill="white">
<path d="M644 322H690V368H644V322Z"/>
</mask>
<path d="M644 322H690V368H644V322Z" fill="#22262F"/>
<path d="M690 368V368.479H690.479V368H690ZM689.521 322V368H690.479V322H689.521ZM690 367.521H644V368.479H690V367.521Z" fill="#22262F" mask="url(#path-251-inside-125_9578_31380)"/>
<mask id="path-253-inside-126_9578_31380" fill="white">
<path d="M690 322H736V368H690V322Z"/>
</mask>
<path d="M736 368V368.479H736.479V368H736ZM735.521 322V368H736.479V322H735.521ZM736 367.521H690V368.479H736V367.521Z" fill="#22262F" mask="url(#path-253-inside-126_9578_31380)"/>
<mask id="path-255-inside-127_9578_31380" fill="white">
<path d="M736 322H782V368H736V322Z"/>
</mask>
<path d="M782 368V368.479H782.479V368H782ZM781.521 322V368H782.479V322H781.521ZM782 367.521H736V368.479H782V367.521Z" fill="#22262F" mask="url(#path-255-inside-127_9578_31380)"/>
<mask id="path-257-inside-128_9578_31380" fill="white">
<path d="M782 322H828V368H782V322Z"/>
</mask>
<path d="M828 368V368.479H828.479V368H828ZM827.521 322V368H828.479V322H827.521ZM828 367.521H782V368.479H828V367.521Z" fill="#22262F" mask="url(#path-257-inside-128_9578_31380)"/>
<mask id="path-259-inside-129_9578_31380" fill="white">
<path d="M92 368H138V414H92V368Z"/>
</mask>
<path d="M138 414V414.479H138.479V414H138ZM137.521 368V414H138.479V368H137.521ZM138 413.521H92V414.479H138V413.521Z" fill="#22262F" mask="url(#path-259-inside-129_9578_31380)"/>
<mask id="path-261-inside-130_9578_31380" fill="white">
<path d="M138 368H184V414H138V368Z"/>
</mask>
<path d="M184 414V414.479H184.479V414H184ZM183.521 368V414H184.479V368H183.521ZM184 413.521H138V414.479H184V413.521Z" fill="#22262F" mask="url(#path-261-inside-130_9578_31380)"/>
<mask id="path-263-inside-131_9578_31380" fill="white">
<path d="M184 368H230V414H184V368Z"/>
</mask>
<path d="M230 414V414.479H230.479V414H230ZM229.521 368V414H230.479V368H229.521ZM230 413.521H184V414.479H230V413.521Z" fill="#22262F" mask="url(#path-263-inside-131_9578_31380)"/>
<mask id="path-265-inside-132_9578_31380" fill="white">
<path d="M230 368H276V414H230V368Z"/>
</mask>
<path d="M230 368H276V414H230V368Z" fill="#22262F"/>
<path d="M276 414V414.479H276.479V414H276ZM275.521 368V414H276.479V368H275.521ZM276 413.521H230V414.479H276V413.521Z" fill="#22262F" mask="url(#path-265-inside-132_9578_31380)"/>
<mask id="path-267-inside-133_9578_31380" fill="white">
<path d="M276 368H322V414H276V368Z"/>
</mask>
<path d="M322 414V414.479H322.479V414H322ZM321.521 368V414H322.479V368H321.521ZM322 413.521H276V414.479H322V413.521Z" fill="#22262F" mask="url(#path-267-inside-133_9578_31380)"/>
<mask id="path-269-inside-134_9578_31380" fill="white">
<path d="M322 368H368V414H322V368Z"/>
</mask>
<path d="M368 414V414.479H368.479V414H368ZM367.521 368V414H368.479V368H367.521ZM368 413.521H322V414.479H368V413.521Z" fill="#22262F" mask="url(#path-269-inside-134_9578_31380)"/>
<mask id="path-271-inside-135_9578_31380" fill="white">
<path d="M368 368H414V414H368V368Z"/>
</mask>
<path d="M414 414V414.479H414.479V414H414ZM413.521 368V414H414.479V368H413.521ZM414 413.521H368V414.479H414V413.521Z" fill="#22262F" mask="url(#path-271-inside-135_9578_31380)"/>
<mask id="path-273-inside-136_9578_31380" fill="white">
<path d="M414 368H460V414H414V368Z"/>
</mask>
<path d="M460 414V414.479H460.479V414H460ZM459.521 368V414H460.479V368H459.521ZM460 413.521H414V414.479H460V413.521Z" fill="#22262F" mask="url(#path-273-inside-136_9578_31380)"/>
<mask id="path-275-inside-137_9578_31380" fill="white">
<path d="M460 368H506V414H460V368Z"/>
</mask>
<path d="M506 414V414.479H506.479V414H506ZM505.521 368V414H506.479V368H505.521ZM506 413.521H460V414.479H506V413.521Z" fill="#22262F" mask="url(#path-275-inside-137_9578_31380)"/>
<mask id="path-277-inside-138_9578_31380" fill="white">
<path d="M506 368H552V414H506V368Z"/>
</mask>
<path d="M506 368H552V414H506V368Z" fill="#22262F"/>
<path d="M552 414V414.479H552.479V414H552ZM551.521 368V414H552.479V368H551.521ZM552 413.521H506V414.479H552V413.521Z" fill="#22262F" mask="url(#path-277-inside-138_9578_31380)"/>
<mask id="path-279-inside-139_9578_31380" fill="white">
<path d="M552 368H598V414H552V368Z"/>
</mask>
<path d="M598 414V414.479H598.479V414H598ZM597.521 368V414H598.479V368H597.521ZM598 413.521H552V414.479H598V413.521Z" fill="#22262F" mask="url(#path-279-inside-139_9578_31380)"/>
<mask id="path-281-inside-140_9578_31380" fill="white">
<path d="M598 368H644V414H598V368Z"/>
</mask>
<path d="M644 414V414.479H644.479V414H644ZM643.521 368V414H644.479V368H643.521ZM644 413.521H598V414.479H644V413.521Z" fill="#22262F" mask="url(#path-281-inside-140_9578_31380)"/>
<mask id="path-283-inside-141_9578_31380" fill="white">
<path d="M644 368H690V414H644V368Z"/>
</mask>
<path d="M690 414V414.479H690.479V414H690ZM689.521 368V414H690.479V368H689.521ZM690 413.521H644V414.479H690V413.521Z" fill="#22262F" mask="url(#path-283-inside-141_9578_31380)"/>
<mask id="path-285-inside-142_9578_31380" fill="white">
<path d="M690 368H736V414H690V368Z"/>
</mask>
<path d="M736 414V414.479H736.479V414H736ZM735.521 368V414H736.479V368H735.521ZM736 413.521H690V414.479H736V413.521Z" fill="#22262F" mask="url(#path-285-inside-142_9578_31380)"/>
<mask id="path-287-inside-143_9578_31380" fill="white">
<path d="M736 368H782V414H736V368Z"/>
</mask>
<path d="M782 414V414.479H782.479V414H782ZM781.521 368V414H782.479V368H781.521ZM782 413.521H736V414.479H782V413.521Z" fill="#22262F" mask="url(#path-287-inside-143_9578_31380)"/>
<mask id="path-289-inside-144_9578_31380" fill="white">
<path d="M782 368H828V414H782V368Z"/>
</mask>
<path d="M828 414V414.479H828.479V414H828ZM827.521 368V414H828.479V368H827.521ZM828 413.521H782V414.479H828V413.521Z" fill="#22262F" mask="url(#path-289-inside-144_9578_31380)"/>
<mask id="path-291-inside-145_9578_31380" fill="white">
<path d="M92 414H138V460H92V414Z"/>
</mask>
<path d="M138 460V460.479H138.479V460H138ZM137.521 414V460H138.479V414H137.521ZM138 459.521H92V460.479H138V459.521Z" fill="#22262F" mask="url(#path-291-inside-145_9578_31380)"/>
<mask id="path-293-inside-146_9578_31380" fill="white">
<path d="M138 414H184V460H138V414Z"/>
</mask>
<path d="M184 460V460.479H184.479V460H184ZM183.521 414V460H184.479V414H183.521ZM184 459.521H138V460.479H184V459.521Z" fill="#22262F" mask="url(#path-293-inside-146_9578_31380)"/>
<mask id="path-295-inside-147_9578_31380" fill="white">
<path d="M184 414H230V460H184V414Z"/>
</mask>
<path d="M230 460V460.479H230.479V460H230ZM229.521 414V460H230.479V414H229.521ZM230 459.521H184V460.479H230V459.521Z" fill="#22262F" mask="url(#path-295-inside-147_9578_31380)"/>
<mask id="path-297-inside-148_9578_31380" fill="white">
<path d="M230 414H276V460H230V414Z"/>
</mask>
<path d="M276 460V460.479H276.479V460H276ZM275.521 414V460H276.479V414H275.521ZM276 459.521H230V460.479H276V459.521Z" fill="#22262F" mask="url(#path-297-inside-148_9578_31380)"/>
<mask id="path-299-inside-149_9578_31380" fill="white">
<path d="M276 414H322V460H276V414Z"/>
</mask>
<path d="M322 460V460.479H322.479V460H322ZM321.521 414V460H322.479V414H321.521ZM322 459.521H276V460.479H322V459.521Z" fill="#22262F" mask="url(#path-299-inside-149_9578_31380)"/>
<mask id="path-301-inside-150_9578_31380" fill="white">
<path d="M322 414H368V460H322V414Z"/>
</mask>
<path d="M368 460V460.479H368.479V460H368ZM367.521 414V460H368.479V414H367.521ZM368 459.521H322V460.479H368V459.521Z" fill="#22262F" mask="url(#path-301-inside-150_9578_31380)"/>
<mask id="path-303-inside-151_9578_31380" fill="white">
<path d="M368 414H414V460H368V414Z"/>
</mask>
<path d="M414 460V460.479H414.479V460H414ZM413.521 414V460H414.479V414H413.521ZM414 459.521H368V460.479H414V459.521Z" fill="#22262F" mask="url(#path-303-inside-151_9578_31380)"/>
<mask id="path-305-inside-152_9578_31380" fill="white">
<path d="M414 414H460V460H414V414Z"/>
</mask>
<path d="M460 460V460.479H460.479V460H460ZM459.521 414V460H460.479V414H459.521ZM460 459.521H414V460.479H460V459.521Z" fill="#22262F" mask="url(#path-305-inside-152_9578_31380)"/>
<mask id="path-307-inside-153_9578_31380" fill="white">
<path d="M460 414H506V460H460V414Z"/>
</mask>
<path d="M506 460V460.479H506.479V460H506ZM505.521 414V460H506.479V414H505.521ZM506 459.521H460V460.479H506V459.521Z" fill="#22262F" mask="url(#path-307-inside-153_9578_31380)"/>
<mask id="path-309-inside-154_9578_31380" fill="white">
<path d="M506 414H552V460H506V414Z"/>
</mask>
<path d="M552 460V460.479H552.479V460H552ZM551.521 414V460H552.479V414H551.521ZM552 459.521H506V460.479H552V459.521Z" fill="#22262F" mask="url(#path-309-inside-154_9578_31380)"/>
<mask id="path-311-inside-155_9578_31380" fill="white">
<path d="M552 414H598V460H552V414Z"/>
</mask>
<path d="M598 460V460.479H598.479V460H598ZM597.521 414V460H598.479V414H597.521ZM598 459.521H552V460.479H598V459.521Z" fill="#22262F" mask="url(#path-311-inside-155_9578_31380)"/>
<mask id="path-313-inside-156_9578_31380" fill="white">
<path d="M598 414H644V460H598V414Z"/>
</mask>
<path d="M644 460V460.479H644.479V460H644ZM643.521 414V460H644.479V414H643.521ZM644 459.521H598V460.479H644V459.521Z" fill="#22262F" mask="url(#path-313-inside-156_9578_31380)"/>
<mask id="path-315-inside-157_9578_31380" fill="white">
<path d="M644 414H690V460H644V414Z"/>
</mask>
<path d="M690 460V460.479H690.479V460H690ZM689.521 414V460H690.479V414H689.521ZM690 459.521H644V460.479H690V459.521Z" fill="#22262F" mask="url(#path-315-inside-157_9578_31380)"/>
<mask id="path-317-inside-158_9578_31380" fill="white">
<path d="M690 414H736V460H690V414Z"/>
</mask>
<path d="M736 460V460.479H736.479V460H736ZM735.521 414V460H736.479V414H735.521ZM736 459.521H690V460.479H736V459.521Z" fill="#22262F" mask="url(#path-317-inside-158_9578_31380)"/>
<mask id="path-319-inside-159_9578_31380" fill="white">
<path d="M736 414H782V460H736V414Z"/>
</mask>
<path d="M782 460V460.479H782.479V460H782ZM781.521 414V460H782.479V414H781.521ZM782 459.521H736V460.479H782V459.521Z" fill="#22262F" mask="url(#path-319-inside-159_9578_31380)"/>
<mask id="path-321-inside-160_9578_31380" fill="white">
<path d="M782 414H828V460H782V414Z"/>
</mask>
<path d="M782 414H828V460H782V414Z" fill="#22262F"/>
<path d="M828 460V460.479H828.479V460H828ZM827.521 414V460H828.479V414H827.521ZM828 459.521H782V460.479H828V459.521Z" fill="#22262F" mask="url(#path-321-inside-160_9578_31380)"/>
<mask id="path-323-inside-161_9578_31380" fill="white">
<path d="M92 460H138V506H92V460Z"/>
</mask>
<path d="M138 506V506.479H138.479V506H138ZM137.521 460V506H138.479V460H137.521ZM138 505.521H92V506.479H138V505.521Z" fill="#22262F" mask="url(#path-323-inside-161_9578_31380)"/>
<mask id="path-325-inside-162_9578_31380" fill="white">
<path d="M138 460H184V506H138V460Z"/>
</mask>
<path d="M184 506V506.479H184.479V506H184ZM183.521 460V506H184.479V460H183.521ZM184 505.521H138V506.479H184V505.521Z" fill="#22262F" mask="url(#path-325-inside-162_9578_31380)"/>
<mask id="path-327-inside-163_9578_31380" fill="white">
<path d="M184 460H230V506H184V460Z"/>
</mask>
<path d="M230 506V506.479H230.479V506H230ZM229.521 460V506H230.479V460H229.521ZM230 505.521H184V506.479H230V505.521Z" fill="#22262F" mask="url(#path-327-inside-163_9578_31380)"/>
<mask id="path-329-inside-164_9578_31380" fill="white">
<path d="M230 460H276V506H230V460Z"/>
</mask>
<path d="M276 506V506.479H276.479V506H276ZM275.521 460V506H276.479V460H275.521ZM276 505.521H230V506.479H276V505.521Z" fill="#22262F" mask="url(#path-329-inside-164_9578_31380)"/>
<mask id="path-331-inside-165_9578_31380" fill="white">
<path d="M276 460H322V506H276V460Z"/>
</mask>
<path d="M276 460H322V506H276V460Z" fill="#22262F"/>
<path d="M322 506V506.479H322.479V506H322ZM321.521 460V506H322.479V460H321.521ZM322 505.521H276V506.479H322V505.521Z" fill="#22262F" mask="url(#path-331-inside-165_9578_31380)"/>
<mask id="path-333-inside-166_9578_31380" fill="white">
<path d="M322 460H368V506H322V460Z"/>
</mask>
<path d="M368 506V506.479H368.479V506H368ZM367.521 460V506H368.479V460H367.521ZM368 505.521H322V506.479H368V505.521Z" fill="#22262F" mask="url(#path-333-inside-166_9578_31380)"/>
<mask id="path-335-inside-167_9578_31380" fill="white">
<path d="M368 460H414V506H368V460Z"/>
</mask>
<path d="M414 506V506.479H414.479V506H414ZM413.521 460V506H414.479V460H413.521ZM414 505.521H368V506.479H414V505.521Z" fill="#22262F" mask="url(#path-335-inside-167_9578_31380)"/>
<mask id="path-337-inside-168_9578_31380" fill="white">
<path d="M414 460H460V506H414V460Z"/>
</mask>
<path d="M460 506V506.479H460.479V506H460ZM459.521 460V506H460.479V460H459.521ZM460 505.521H414V506.479H460V505.521Z" fill="#22262F" mask="url(#path-337-inside-168_9578_31380)"/>
<mask id="path-339-inside-169_9578_31380" fill="white">
<path d="M460 460H506V506H460V460Z"/>
</mask>
<path d="M460 460H506V506H460V460Z" fill="#22262F"/>
<path d="M506 506V506.479H506.479V506H506ZM505.521 460V506H506.479V460H505.521ZM506 505.521H460V506.479H506V505.521Z" fill="#22262F" mask="url(#path-339-inside-169_9578_31380)"/>
<mask id="path-341-inside-170_9578_31380" fill="white">
<path d="M506 460H552V506H506V460Z"/>
</mask>
<path d="M552 506V506.479H552.479V506H552ZM551.521 460V506H552.479V460H551.521ZM552 505.521H506V506.479H552V505.521Z" fill="#22262F" mask="url(#path-341-inside-170_9578_31380)"/>
<mask id="path-343-inside-171_9578_31380" fill="white">
<path d="M552 460H598V506H552V460Z"/>
</mask>
<path d="M598 506V506.479H598.479V506H598ZM597.521 460V506H598.479V460H597.521ZM598 505.521H552V506.479H598V505.521Z" fill="#22262F" mask="url(#path-343-inside-171_9578_31380)"/>
<mask id="path-345-inside-172_9578_31380" fill="white">
<path d="M598 460H644V506H598V460Z"/>
</mask>
<path d="M644 506V506.479H644.479V506H644ZM643.521 460V506H644.479V460H643.521ZM644 505.521H598V506.479H644V505.521Z" fill="#22262F" mask="url(#path-345-inside-172_9578_31380)"/>
<mask id="path-347-inside-173_9578_31380" fill="white">
<path d="M644 460H690V506H644V460Z"/>
</mask>
<path d="M690 506V506.479H690.479V506H690ZM689.521 460V506H690.479V460H689.521ZM690 505.521H644V506.479H690V505.521Z" fill="#22262F" mask="url(#path-347-inside-173_9578_31380)"/>
<mask id="path-349-inside-174_9578_31380" fill="white">
<path d="M690 460H736V506H690V460Z"/>
</mask>
<path d="M736 506V506.479H736.479V506H736ZM735.521 460V506H736.479V460H735.521ZM736 505.521H690V506.479H736V505.521Z" fill="#22262F" mask="url(#path-349-inside-174_9578_31380)"/>
<mask id="path-351-inside-175_9578_31380" fill="white">
<path d="M736 460H782V506H736V460Z"/>
</mask>
<path d="M782 506V506.479H782.479V506H782ZM781.521 460V506H782.479V460H781.521ZM782 505.521H736V506.479H782V505.521Z" fill="#22262F" mask="url(#path-351-inside-175_9578_31380)"/>
<mask id="path-353-inside-176_9578_31380" fill="white">
<path d="M782 460H828V506H782V460Z"/>
</mask>
<path d="M828 506V506.479H828.479V506H828ZM827.521 460V506H828.479V460H827.521ZM828 505.521H782V506.479H828V505.521Z" fill="#22262F" mask="url(#path-353-inside-176_9578_31380)"/>
<mask id="path-355-inside-177_9578_31380" fill="white">
<path d="M92 506H138V552H92V506Z"/>
</mask>
<path d="M92 506H138V552H92V506Z" fill="#22262F"/>
<path d="M138 552V552.479H138.479V552H138ZM137.521 506V552H138.479V506H137.521ZM138 551.521H92V552.479H138V551.521Z" fill="#22262F" mask="url(#path-355-inside-177_9578_31380)"/>
<mask id="path-357-inside-178_9578_31380" fill="white">
<path d="M138 506H184V552H138V506Z"/>
</mask>
<path d="M184 552V552.479H184.479V552H184ZM183.521 506V552H184.479V506H183.521ZM184 551.521H138V552.479H184V551.521Z" fill="#22262F" mask="url(#path-357-inside-178_9578_31380)"/>
<mask id="path-359-inside-179_9578_31380" fill="white">
<path d="M184 506H230V552H184V506Z"/>
</mask>
<path d="M230 552V552.479H230.479V552H230ZM229.521 506V552H230.479V506H229.521ZM230 551.521H184V552.479H230V551.521Z" fill="#22262F" mask="url(#path-359-inside-179_9578_31380)"/>
<mask id="path-361-inside-180_9578_31380" fill="white">
<path d="M230 506H276V552H230V506Z"/>
</mask>
<path d="M276 552V552.479H276.479V552H276ZM275.521 506V552H276.479V506H275.521ZM276 551.521H230V552.479H276V551.521Z" fill="#22262F" mask="url(#path-361-inside-180_9578_31380)"/>
<mask id="path-363-inside-181_9578_31380" fill="white">
<path d="M276 506H322V552H276V506Z"/>
</mask>
<path d="M322 552V552.479H322.479V552H322ZM321.521 506V552H322.479V506H321.521ZM322 551.521H276V552.479H322V551.521Z" fill="#22262F" mask="url(#path-363-inside-181_9578_31380)"/>
<mask id="path-365-inside-182_9578_31380" fill="white">
<path d="M322 506H368V552H322V506Z"/>
</mask>
<path d="M368 552V552.479H368.479V552H368ZM367.521 506V552H368.479V506H367.521ZM368 551.521H322V552.479H368V551.521Z" fill="#22262F" mask="url(#path-365-inside-182_9578_31380)"/>
<mask id="path-367-inside-183_9578_31380" fill="white">
<path d="M368 506H414V552H368V506Z"/>
</mask>
<path d="M414 552V552.479H414.479V552H414ZM413.521 506V552H414.479V506H413.521ZM414 551.521H368V552.479H414V551.521Z" fill="#22262F" mask="url(#path-367-inside-183_9578_31380)"/>
<mask id="path-369-inside-184_9578_31380" fill="white">
<path d="M414 506H460V552H414V506Z"/>
</mask>
<path d="M460 552V552.479H460.479V552H460ZM459.521 506V552H460.479V506H459.521ZM460 551.521H414V552.479H460V551.521Z" fill="#22262F" mask="url(#path-369-inside-184_9578_31380)"/>
<mask id="path-371-inside-185_9578_31380" fill="white">
<path d="M460 506H506V552H460V506Z"/>
</mask>
<path d="M506 552V552.479H506.479V552H506ZM505.521 506V552H506.479V506H505.521ZM506 551.521H460V552.479H506V551.521Z" fill="#22262F" mask="url(#path-371-inside-185_9578_31380)"/>
<mask id="path-373-inside-186_9578_31380" fill="white">
<path d="M506 506H552V552H506V506Z"/>
</mask>
<path d="M552 552V552.479H552.479V552H552ZM551.521 506V552H552.479V506H551.521ZM552 551.521H506V552.479H552V551.521Z" fill="#22262F" mask="url(#path-373-inside-186_9578_31380)"/>
<mask id="path-375-inside-187_9578_31380" fill="white">
<path d="M552 506H598V552H552V506Z"/>
</mask>
<path d="M598 552V552.479H598.479V552H598ZM597.521 506V552H598.479V506H597.521ZM598 551.521H552V552.479H598V551.521Z" fill="#22262F" mask="url(#path-375-inside-187_9578_31380)"/>
<mask id="path-377-inside-188_9578_31380" fill="white">
<path d="M598 506H644V552H598V506Z"/>
</mask>
<path d="M644 552V552.479H644.479V552H644ZM643.521 506V552H644.479V506H643.521ZM644 551.521H598V552.479H644V551.521Z" fill="#22262F" mask="url(#path-377-inside-188_9578_31380)"/>
<mask id="path-379-inside-189_9578_31380" fill="white">
<path d="M644 506H690V552H644V506Z"/>
</mask>
<path d="M644 506H690V552H644V506Z" fill="#22262F"/>
<path d="M690 552V552.479H690.479V552H690ZM689.521 506V552H690.479V506H689.521ZM690 551.521H644V552.479H690V551.521Z" fill="#22262F" mask="url(#path-379-inside-189_9578_31380)"/>
<mask id="path-381-inside-190_9578_31380" fill="white">
<path d="M690 506H736V552H690V506Z"/>
</mask>
<path d="M736 552V552.479H736.479V552H736ZM735.521 506V552H736.479V506H735.521ZM736 551.521H690V552.479H736V551.521Z" fill="#22262F" mask="url(#path-381-inside-190_9578_31380)"/>
<mask id="path-383-inside-191_9578_31380" fill="white">
<path d="M736 506H782V552H736V506Z"/>
</mask>
<path d="M782 552V552.479H782.479V552H782ZM781.521 506V552H782.479V506H781.521ZM782 551.521H736V552.479H782V551.521Z" fill="#22262F" mask="url(#path-383-inside-191_9578_31380)"/>
<mask id="path-385-inside-192_9578_31380" fill="white">
<path d="M782 506H828V552H782V506Z"/>
</mask>
<path d="M828 552V552.479H828.479V552H828ZM827.521 506V552H828.479V506H827.521ZM828 551.521H782V552.479H828V551.521Z" fill="#22262F" mask="url(#path-385-inside-192_9578_31380)"/>
<mask id="path-387-inside-193_9578_31380" fill="white">
<path d="M92 552H138V598H92V552Z"/>
</mask>
<path d="M138 598V598.479H138.479V598H138ZM137.521 552V598H138.479V552H137.521ZM138 597.521H92V598.479H138V597.521Z" fill="#22262F" mask="url(#path-387-inside-193_9578_31380)"/>
<mask id="path-389-inside-194_9578_31380" fill="white">
<path d="M138 552H184V598H138V552Z"/>
</mask>
<path d="M184 598V598.479H184.479V598H184ZM183.521 552V598H184.479V552H183.521ZM184 597.521H138V598.479H184V597.521Z" fill="#22262F" mask="url(#path-389-inside-194_9578_31380)"/>
<mask id="path-391-inside-195_9578_31380" fill="white">
<path d="M184 552H230V598H184V552Z"/>
</mask>
<path d="M230 598V598.479H230.479V598H230ZM229.521 552V598H230.479V552H229.521ZM230 597.521H184V598.479H230V597.521Z" fill="#22262F" mask="url(#path-391-inside-195_9578_31380)"/>
<mask id="path-393-inside-196_9578_31380" fill="white">
<path d="M230 552H276V598H230V552Z"/>
</mask>
<path d="M276 598V598.479H276.479V598H276ZM275.521 552V598H276.479V552H275.521ZM276 597.521H230V598.479H276V597.521Z" fill="#22262F" mask="url(#path-393-inside-196_9578_31380)"/>
<mask id="path-395-inside-197_9578_31380" fill="white">
<path d="M276 552H322V598H276V552Z"/>
</mask>
<path d="M322 598V598.479H322.479V598H322ZM321.521 552V598H322.479V552H321.521ZM322 597.521H276V598.479H322V597.521Z" fill="#22262F" mask="url(#path-395-inside-197_9578_31380)"/>
<mask id="path-397-inside-198_9578_31380" fill="white">
<path d="M322 552H368V598H322V552Z"/>
</mask>
<path d="M368 598V598.479H368.479V598H368ZM367.521 552V598H368.479V552H367.521ZM368 597.521H322V598.479H368V597.521Z" fill="#22262F" mask="url(#path-397-inside-198_9578_31380)"/>
<mask id="path-399-inside-199_9578_31380" fill="white">
<path d="M368 552H414V598H368V552Z"/>
</mask>
<path d="M368 552H414V598H368V552Z" fill="#22262F"/>
<path d="M414 598V598.479H414.479V598H414ZM413.521 552V598H414.479V552H413.521ZM414 597.521H368V598.479H414V597.521Z" fill="#22262F" mask="url(#path-399-inside-199_9578_31380)"/>
<mask id="path-401-inside-200_9578_31380" fill="white">
<path d="M414 552H460V598H414V552Z"/>
</mask>
<path d="M460 598V598.479H460.479V598H460ZM459.521 552V598H460.479V552H459.521ZM460 597.521H414V598.479H460V597.521Z" fill="#22262F" mask="url(#path-401-inside-200_9578_31380)"/>
<mask id="path-403-inside-201_9578_31380" fill="white">
<path d="M460 552H506V598H460V552Z"/>
</mask>
<path d="M506 598V598.479H506.479V598H506ZM505.521 552V598H506.479V552H505.521ZM506 597.521H460V598.479H506V597.521Z" fill="#22262F" mask="url(#path-403-inside-201_9578_31380)"/>
<mask id="path-405-inside-202_9578_31380" fill="white">
<path d="M506 552H552V598H506V552Z"/>
</mask>
<path d="M552 598V598.479H552.479V598H552ZM551.521 552V598H552.479V552H551.521ZM552 597.521H506V598.479H552V597.521Z" fill="#22262F" mask="url(#path-405-inside-202_9578_31380)"/>
<mask id="path-407-inside-203_9578_31380" fill="white">
<path d="M552 552H598V598H552V552Z"/>
</mask>
<path d="M598 598V598.479H598.479V598H598ZM597.521 552V598H598.479V552H597.521ZM598 597.521H552V598.479H598V597.521Z" fill="#22262F" mask="url(#path-407-inside-203_9578_31380)"/>
<mask id="path-409-inside-204_9578_31380" fill="white">
<path d="M598 552H644V598H598V552Z"/>
</mask>
<path d="M644 598V598.479H644.479V598H644ZM643.521 552V598H644.479V552H643.521ZM644 597.521H598V598.479H644V597.521Z" fill="#22262F" mask="url(#path-409-inside-204_9578_31380)"/>
<mask id="path-411-inside-205_9578_31380" fill="white">
<path d="M644 552H690V598H644V552Z"/>
</mask>
<path d="M690 598V598.479H690.479V598H690ZM689.521 552V598H690.479V552H689.521ZM690 597.521H644V598.479H690V597.521Z" fill="#22262F" mask="url(#path-411-inside-205_9578_31380)"/>
<mask id="path-413-inside-206_9578_31380" fill="white">
<path d="M690 552H736V598H690V552Z"/>
</mask>
<path d="M736 598V598.479H736.479V598H736ZM735.521 552V598H736.479V552H735.521ZM736 597.521H690V598.479H736V597.521Z" fill="#22262F" mask="url(#path-413-inside-206_9578_31380)"/>
<mask id="path-415-inside-207_9578_31380" fill="white">
<path d="M736 552H782V598H736V552Z"/>
</mask>
<path d="M782 598V598.479H782.479V598H782ZM781.521 552V598H782.479V552H781.521ZM782 597.521H736V598.479H782V597.521Z" fill="#22262F" mask="url(#path-415-inside-207_9578_31380)"/>
<mask id="path-417-inside-208_9578_31380" fill="white">
<path d="M782 552H828V598H782V552Z"/>
</mask>
<path d="M828 598V598.479H828.479V598H828ZM827.521 552V598H828.479V552H827.521ZM828 597.521H782V598.479H828V597.521Z" fill="#22262F" mask="url(#path-417-inside-208_9578_31380)"/>
<mask id="path-419-inside-209_9578_31380" fill="white">
<path d="M92 598H138V644H92V598Z"/>
</mask>
<path d="M138 644V644.479H138.479V644H138ZM137.521 598V644H138.479V598H137.521ZM138 643.521H92V644.479H138V643.521Z" fill="#22262F" mask="url(#path-419-inside-209_9578_31380)"/>
<mask id="path-421-inside-210_9578_31380" fill="white">
<path d="M138 598H184V644H138V598Z"/>
</mask>
<path d="M184 644V644.479H184.479V644H184ZM183.521 598V644H184.479V598H183.521ZM184 643.521H138V644.479H184V643.521Z" fill="#22262F" mask="url(#path-421-inside-210_9578_31380)"/>
<mask id="path-423-inside-211_9578_31380" fill="white">
<path d="M184 598H230V644H184V598Z"/>
</mask>
<path d="M230 644V644.479H230.479V644H230ZM229.521 598V644H230.479V598H229.521ZM230 643.521H184V644.479H230V643.521Z" fill="#22262F" mask="url(#path-423-inside-211_9578_31380)"/>
<mask id="path-425-inside-212_9578_31380" fill="white">
<path d="M230 598H276V644H230V598Z"/>
</mask>
<path d="M230 598H276V644H230V598Z" fill="#22262F"/>
<path d="M276 644V644.479H276.479V644H276ZM275.521 598V644H276.479V598H275.521ZM276 643.521H230V644.479H276V643.521Z" fill="#22262F" mask="url(#path-425-inside-212_9578_31380)"/>
<mask id="path-427-inside-213_9578_31380" fill="white">
<path d="M276 598H322V644H276V598Z"/>
</mask>
<path d="M322 644V644.479H322.479V644H322ZM321.521 598V644H322.479V598H321.521ZM322 643.521H276V644.479H322V643.521Z" fill="#22262F" mask="url(#path-427-inside-213_9578_31380)"/>
<mask id="path-429-inside-214_9578_31380" fill="white">
<path d="M322 598H368V644H322V598Z"/>
</mask>
<path d="M368 644V644.479H368.479V644H368ZM367.521 598V644H368.479V598H367.521ZM368 643.521H322V644.479H368V643.521Z" fill="#22262F" mask="url(#path-429-inside-214_9578_31380)"/>
<mask id="path-431-inside-215_9578_31380" fill="white">
<path d="M368 598H414V644H368V598Z"/>
</mask>
<path d="M414 644V644.479H414.479V644H414ZM413.521 598V644H414.479V598H413.521ZM414 643.521H368V644.479H414V643.521Z" fill="#22262F" mask="url(#path-431-inside-215_9578_31380)"/>
<mask id="path-433-inside-216_9578_31380" fill="white">
<path d="M414 598H460V644H414V598Z"/>
</mask>
<path d="M460 644V644.479H460.479V644H460ZM459.521 598V644H460.479V598H459.521ZM460 643.521H414V644.479H460V643.521Z" fill="#22262F" mask="url(#path-433-inside-216_9578_31380)"/>
<mask id="path-435-inside-217_9578_31380" fill="white">
<path d="M460 598H506V644H460V598Z"/>
</mask>
<path d="M506 644V644.479H506.479V644H506ZM505.521 598V644H506.479V598H505.521ZM506 643.521H460V644.479H506V643.521Z" fill="#22262F" mask="url(#path-435-inside-217_9578_31380)"/>
<mask id="path-437-inside-218_9578_31380" fill="white">
<path d="M506 598H552V644H506V598Z"/>
</mask>
<path d="M506 598H552V644H506V598Z" fill="#22262F"/>
<path d="M552 644V644.479H552.479V644H552ZM551.521 598V644H552.479V598H551.521ZM552 643.521H506V644.479H552V643.521Z" fill="#22262F" mask="url(#path-437-inside-218_9578_31380)"/>
<mask id="path-439-inside-219_9578_31380" fill="white">
<path d="M552 598H598V644H552V598Z"/>
</mask>
<path d="M598 644V644.479H598.479V644H598ZM597.521 598V644H598.479V598H597.521ZM598 643.521H552V644.479H598V643.521Z" fill="#22262F" mask="url(#path-439-inside-219_9578_31380)"/>
<mask id="path-441-inside-220_9578_31380" fill="white">
<path d="M598 598H644V644H598V598Z"/>
</mask>
<path d="M644 644V644.479H644.479V644H644ZM643.521 598V644H644.479V598H643.521ZM644 643.521H598V644.479H644V643.521Z" fill="#22262F" mask="url(#path-441-inside-220_9578_31380)"/>
<mask id="path-443-inside-221_9578_31380" fill="white">
<path d="M644 598H690V644H644V598Z"/>
</mask>
<path d="M690 644V644.479H690.479V644H690ZM689.521 598V644H690.479V598H689.521ZM690 643.521H644V644.479H690V643.521Z" fill="#22262F" mask="url(#path-443-inside-221_9578_31380)"/>
<mask id="path-445-inside-222_9578_31380" fill="white">
<path d="M690 598H736V644H690V598Z"/>
</mask>
<path d="M736 644V644.479H736.479V644H736ZM735.521 598V644H736.479V598H735.521ZM736 643.521H690V644.479H736V643.521Z" fill="#22262F" mask="url(#path-445-inside-222_9578_31380)"/>
<mask id="path-447-inside-223_9578_31380" fill="white">
<path d="M736 598H782V644H736V598Z"/>
</mask>
<path d="M782 644V644.479H782.479V644H782ZM781.521 598V644H782.479V598H781.521ZM782 643.521H736V644.479H782V643.521Z" fill="#22262F" mask="url(#path-447-inside-223_9578_31380)"/>
<mask id="path-449-inside-224_9578_31380" fill="white">
<path d="M782 598H828V644H782V598Z"/>
</mask>
<path d="M828 644V644.479H828.479V644H828ZM827.521 598V644H828.479V598H827.521ZM828 643.521H782V644.479H828V643.521Z" fill="#22262F" mask="url(#path-449-inside-224_9578_31380)"/>
<mask id="path-451-inside-225_9578_31380" fill="white">
<path d="M92 644H138V690H92V644Z"/>
</mask>
<path d="M138 690V690.479H138.479V690H138ZM137.521 644V690H138.479V644H137.521ZM138 689.521H92V690.479H138V689.521Z" fill="#22262F" mask="url(#path-451-inside-225_9578_31380)"/>
<mask id="path-453-inside-226_9578_31380" fill="white">
<path d="M138 644H184V690H138V644Z"/>
</mask>
<path d="M138 644H184V690H138V644Z" fill="#22262F"/>
<path d="M184 690V690.479H184.479V690H184ZM183.521 644V690H184.479V644H183.521ZM184 689.521H138V690.479H184V689.521Z" fill="#22262F" mask="url(#path-453-inside-226_9578_31380)"/>
<mask id="path-455-inside-227_9578_31380" fill="white">
<path d="M184 644H230V690H184V644Z"/>
</mask>
<path d="M230 690V690.479H230.479V690H230ZM229.521 644V690H230.479V644H229.521ZM230 689.521H184V690.479H230V689.521Z" fill="#22262F" mask="url(#path-455-inside-227_9578_31380)"/>
<mask id="path-457-inside-228_9578_31380" fill="white">
<path d="M230 644H276V690H230V644Z"/>
</mask>
<path d="M276 690V690.479H276.479V690H276ZM275.521 644V690H276.479V644H275.521ZM276 689.521H230V690.479H276V689.521Z" fill="#22262F" mask="url(#path-457-inside-228_9578_31380)"/>
<mask id="path-459-inside-229_9578_31380" fill="white">
<path d="M276 644H322V690H276V644Z"/>
</mask>
<path d="M322 690V690.479H322.479V690H322ZM321.521 644V690H322.479V644H321.521ZM322 689.521H276V690.479H322V689.521Z" fill="#22262F" mask="url(#path-459-inside-229_9578_31380)"/>
<mask id="path-461-inside-230_9578_31380" fill="white">
<path d="M322 644H368V690H322V644Z"/>
</mask>
<path d="M368 690V690.479H368.479V690H368ZM367.521 644V690H368.479V644H367.521ZM368 689.521H322V690.479H368V689.521Z" fill="#22262F" mask="url(#path-461-inside-230_9578_31380)"/>
<mask id="path-463-inside-231_9578_31380" fill="white">
<path d="M368 644H414V690H368V644Z"/>
</mask>
<path d="M414 690V690.479H414.479V690H414ZM413.521 644V690H414.479V644H413.521ZM414 689.521H368V690.479H414V689.521Z" fill="#22262F" mask="url(#path-463-inside-231_9578_31380)"/>
<mask id="path-465-inside-232_9578_31380" fill="white">
<path d="M414 644H460V690H414V644Z"/>
</mask>
<path d="M460 690V690.479H460.479V690H460ZM459.521 644V690H460.479V644H459.521ZM460 689.521H414V690.479H460V689.521Z" fill="#22262F" mask="url(#path-465-inside-232_9578_31380)"/>
<mask id="path-467-inside-233_9578_31380" fill="white">
<path d="M460 644H506V690H460V644Z"/>
</mask>
<path d="M506 690V690.479H506.479V690H506ZM505.521 644V690H506.479V644H505.521ZM506 689.521H460V690.479H506V689.521Z" fill="#22262F" mask="url(#path-467-inside-233_9578_31380)"/>
<mask id="path-469-inside-234_9578_31380" fill="white">
<path d="M506 644H552V690H506V644Z"/>
</mask>
<path d="M552 690V690.479H552.479V690H552ZM551.521 644V690H552.479V644H551.521ZM552 689.521H506V690.479H552V689.521Z" fill="#22262F" mask="url(#path-469-inside-234_9578_31380)"/>
<mask id="path-471-inside-235_9578_31380" fill="white">
<path d="M552 644H598V690H552V644Z"/>
</mask>
<path d="M598 690V690.479H598.479V690H598ZM597.521 644V690H598.479V644H597.521ZM598 689.521H552V690.479H598V689.521Z" fill="#22262F" mask="url(#path-471-inside-235_9578_31380)"/>
<mask id="path-473-inside-236_9578_31380" fill="white">
<path d="M598 644H644V690H598V644Z"/>
</mask>
<path d="M644 690V690.479H644.479V690H644ZM643.521 644V690H644.479V644H643.521ZM644 689.521H598V690.479H644V689.521Z" fill="#22262F" mask="url(#path-473-inside-236_9578_31380)"/>
<mask id="path-475-inside-237_9578_31380" fill="white">
<path d="M644 644H690V690H644V644Z"/>
</mask>
<path d="M690 690V690.479H690.479V690H690ZM689.521 644V690H690.479V644H689.521ZM690 689.521H644V690.479H690V689.521Z" fill="#22262F" mask="url(#path-475-inside-237_9578_31380)"/>
<mask id="path-477-inside-238_9578_31380" fill="white">
<path d="M690 644H736V690H690V644Z"/>
</mask>
<path d="M736 690V690.479H736.479V690H736ZM735.521 644V690H736.479V644H735.521ZM736 689.521H690V690.479H736V689.521Z" fill="#22262F" mask="url(#path-477-inside-238_9578_31380)"/>
<mask id="path-479-inside-239_9578_31380" fill="white">
<path d="M736 644H782V690H736V644Z"/>
</mask>
<path d="M736 644H782V690H736V644Z" fill="#22262F"/>
<path d="M782 690V690.479H782.479V690H782ZM781.521 644V690H782.479V644H781.521ZM782 689.521H736V690.479H782V689.521Z" fill="#22262F" mask="url(#path-479-inside-239_9578_31380)"/>
<mask id="path-481-inside-240_9578_31380" fill="white">
<path d="M782 644H828V690H782V644Z"/>
</mask>
<path d="M828 690V690.479H828.479V690H828ZM827.521 644V690H828.479V644H827.521ZM828 689.521H782V690.479H828V689.521Z" fill="#22262F" mask="url(#path-481-inside-240_9578_31380)"/>
</g>
<rect x="0.239583" y="0.239583" width="919.521" height="689.521" stroke="#22262F" stroke-width="0.479167"/>
</g>
<defs>
<radialGradient id="paint0_radial_9578_31380" cx="0" cy="0" r="1" gradientUnits="userSpaceOnUse" gradientTransform="translate(345 -8.22544e-05) rotate(90) scale(690 360.136)">
<stop/>
<stop offset="0.953125" stop-opacity="0"/>
</radialGradient>
<clipPath id="clip0_9578_31380">
<rect width="920" height="690" fill="white"/>
</clipPath>
</defs>
</svg>
